<svg width="247" height="147" viewBox="0 0 247 147" fill="none" xmlns="http://www.w3.org/2000/svg">
<path d="M174.602 0.51149C168.624 1.38124 161.677 3.55562 155.164 6.5663C146.815 10.4467 134.357 18.8432 125.44 26.5706C118.727 32.4247 109.776 42.1926 105.501 48.3143C104.432 49.8531 103.397 51.1243 103.23 51.1243C103.029 51.1578 101.693 49.9535 100.224 48.4482C98.7543 46.9428 95.8152 44.1997 93.7111 42.3264C81.8881 31.8894 72.1691 26.2026 61.3814 23.4595C58.075 22.6232 57.3068 22.5563 50.9611 22.5563C44.6154 22.5563 43.8472 22.6232 40.5408 23.4595C18.8986 28.9457 5.23866 44.8688 0.830066 69.7236C-0.205285 75.4104 -0.272082 87.4866 0.629676 92.8054C3.63553 109.933 11.1502 123.046 23.1736 132.111C29.1185 136.594 36.4996 139.906 43.8806 141.478C51.0613 143.017 61.0474 142.682 68.5287 140.642C77.2457 138.334 84.7269 134.252 94.8801 126.358C99.656 122.645 107.805 114.65 109.575 111.973L110.845 110.033L117.892 116.991C121.766 120.805 126.508 125.22 128.445 126.793C146.28 141.411 165.952 148.068 186.96 146.563C197.48 145.793 206.164 143.184 214.446 138.3C231.88 128.03 242.802 110.635 245.507 88.9585C246.175 83.5727 246.175 73.6375 245.507 68.2183C243.57 52.6296 236.924 36.372 227.639 24.7307C223.765 19.8467 215.949 12.4873 211.608 9.61043C199.918 1.81612 187.127 -1.32837 174.602 0.51149ZM191.903 47.1435C201.221 49.7193 210.138 57.6474 214.613 67.3151C219.289 77.4175 220.525 89.1592 217.953 99.1948C216.45 105.049 214.012 109.465 209.837 113.88C206.264 117.694 203.225 120.002 199.551 121.708C195.51 123.581 192.771 124.183 188.396 124.183C180.58 124.15 172.698 121.24 163.18 114.884C155.665 109.899 150.522 105.484 141.037 95.9165L132.119 86.9179L133.188 85.3791C134.825 83.1378 140.068 76.6482 144.076 71.898C156.266 57.5136 169.759 48.214 180.948 46.5079C183.92 46.0396 188.963 46.3407 191.903 47.1435ZM48.7902 48.3143C54.5681 50.288 61.515 54.4026 67.9943 59.6211C71.7683 62.6652 78.2476 69.1549 79.8174 71.4966L80.7859 72.935L78.8488 75.7449C75.9431 80.0268 73.0041 83.2716 69.3971 86.3158C55.9375 97.5556 44.916 99.2617 36.5664 91.4005C32.6922 87.7542 30.1205 83.1713 28.5842 77.3172C25.9791 67.4489 27.4486 57.0119 32.1912 51.4923C33.5939 49.8197 35.9318 48.1805 37.7353 47.6118C40.0064 46.8425 45.5506 47.2104 48.7902 48.3143Z" fill="#008BD0"/>
</svg>
